<svg width="24" height="24" viewBox="0 0 24 24" fill="none" xmlns="http://www.w3.org/2000/svg">
<path d="M8.1181 22.9295C9.17281 22.9295 10.0278 22.0398 10.0278 20.9423C10.0278 19.8448 9.17281 18.9551 8.1181 18.9551C7.06339 18.9551 6.20837 19.8448 6.20837 20.9423C6.20837 22.0398 7.06339 22.9295 8.1181 22.9295Z" stroke="white" stroke-width="1.8" stroke-linecap="round" stroke-linejoin="round"/>
<path d="M19.5764 22.9295C20.6311 22.9295 21.4861 22.0398 21.4861 20.9423C21.4861 19.8448 20.6311 18.9551 19.5764 18.9551C18.5217 18.9551 17.6667 19.8448 17.6667 20.9423C17.6667 22.0398 18.5217 22.9295 19.5764 22.9295Z" stroke="white" stroke-width="1.8" stroke-linecap="round" stroke-linejoin="round"/>
<path d="M5.89328 6.03844H22.441L20.8369 14.3747C20.7495 14.8321 20.5104 15.243 20.1613 15.5355C19.8121 15.8279 19.3753 15.9833 18.9271 15.9743H8.83426C8.36798 15.9785 7.91637 15.8049 7.56458 15.4864C7.21279 15.168 6.98513 14.7266 6.92453 14.2455L5.47314 2.79934C5.41296 2.32166 5.18805 1.883 4.84026 1.56497C4.49248 1.24695 4.04551 1.07123 3.58252 1.0705H1.43408" stroke="white" stroke-width="1.8" stroke-linecap="round" stroke-linejoin="round"/>
</svg>
