<svg width="119" height="27" viewBox="0 0 119 27" fill="none" xmlns="http://www.w3.org/2000/svg">
<path d="M5.72363 18.2466C4.24707 16.5239 3.50879 13.9136 3.50879 10.4155C3.50879 6.98779 4.51514 4.39502 6.52783 2.63721C6.58057 2.58447 6.64648 2.53174 6.72559 2.479C5.19629 3.15576 3.97021 4.22363 3.04736 5.68262C2.09814 7.17676 1.62354 8.82471 1.62354 10.6265C1.62354 13.061 2.43213 15.144 4.04932 16.8755C4.55029 17.4116 5.1084 17.8687 5.72363 18.2466ZM17.958 10.666C17.958 10.042 17.8789 9.40479 17.7207 8.75439C17.5625 8.09521 17.3384 7.45361 17.0483 6.82959C16.7671 6.19678 16.4243 5.59912 16.02 5.03662C15.6245 4.46533 15.1895 3.96875 14.7148 3.54688C13.6689 2.61523 12.5967 2.14941 11.498 2.14941C9.33594 2.14941 7.65723 3.03711 6.46191 4.8125C5.40723 6.38574 4.87988 8.25342 4.87988 10.4155C4.87988 11.9976 5.02051 13.2544 5.30176 14.186C5.58301 15.1177 5.87744 15.8691 6.18506 16.4404C6.50146 17.0029 6.88818 17.4951 7.34521 17.917C8.3208 18.8047 9.55127 19.2485 11.0366 19.2485C12.2231 19.2485 13.3789 18.7959 14.5039 17.8906C15.5234 17.0557 16.3584 15.957 17.0088 14.5947C17.6416 13.2588 17.958 11.9492 17.958 10.666ZM19.3291 10.666C19.3291 11.5625 19.2104 12.4414 18.9731 13.3027C18.7446 14.1553 18.4194 14.9595 17.9976 15.7153C17.5845 16.4712 17.0835 17.1611 16.4946 17.7852C15.9058 18.4092 15.2598 18.9453 14.5566 19.3936C13.0713 20.334 11.4761 20.8042 9.771 20.8042C7.16064 20.8042 4.91504 19.8066 3.03418 17.8115C1.85645 16.5635 1.03906 15.0693 0.582031 13.3291C0.353516 12.459 0.239258 11.5581 0.239258 10.6265C0.239258 8.78955 0.674316 7.08008 1.54443 5.49805C2.37939 3.97754 3.52197 2.75586 4.97217 1.83301C6.43994 0.910156 8.03955 0.44873 9.771 0.44873C11.5552 0.44873 13.2031 0.945313 14.7148 1.93848C16.1299 2.87012 17.2505 4.12256 18.0767 5.6958C18.9116 7.26904 19.3291 8.92578 19.3291 10.666ZM27.1074 8.55664C26.7734 8.60938 26.167 8.63574 25.2881 8.63574H25.1826V18.3257C25.3496 18.3081 25.5122 18.2993 25.6704 18.2993C25.6704 18.2993 26.1494 18.2993 27.1074 18.2993V8.55664ZM34.4771 11.4834C34.5298 11.3691 34.5562 11.2109 34.5562 11.0088C34.5562 10.8066 34.4595 10.6133 34.2661 10.4287C34.0815 10.2354 33.853 10.1387 33.5806 10.1387C33.3081 10.1387 33.0752 10.2354 32.8818 10.4287C32.6973 10.6133 32.605 10.8066 32.605 11.0088C32.605 11.2109 32.6313 11.3691 32.6841 11.4834C32.7368 11.5977 32.8071 11.7031 32.895 11.7998C33.0796 11.9932 33.3081 12.0898 33.5806 12.0898C33.9937 12.0898 34.2925 11.8877 34.4771 11.4834ZM28.5049 8.68848C29.3838 7.4668 30.5439 6.85596 31.9854 6.85596C33.1807 6.89111 34.1475 7.25586 34.8857 7.9502C35.6416 8.64453 36.0195 9.5542 36.0195 10.6792C36.0195 11.4263 35.7998 12.0723 35.3604 12.6172C34.9033 13.1797 34.3101 13.4609 33.5806 13.4609C32.9302 13.4609 32.3765 13.2324 31.9194 12.7754C31.4624 12.3184 31.2339 11.7646 31.2339 11.1143C31.2339 10.4727 31.4624 9.91895 31.9194 9.45312C32.3765 8.97852 32.9302 8.74121 33.5806 8.74121C33.6245 8.74121 33.6641 8.74561 33.6992 8.75439C33.7432 8.76318 33.7871 8.76758 33.8311 8.76758C33.3652 8.40723 32.8159 8.22705 32.1831 8.22705C31.5503 8.22705 31.0493 8.33252 30.6802 8.54346C30.311 8.74561 29.9946 9.00488 29.731 9.32129C29.4761 9.62891 29.2695 9.96729 29.1113 10.3364C28.9531 10.6968 28.8301 11.0352 28.7422 11.3516C28.584 11.8877 28.5049 12.2964 28.5049 12.5776L28.4785 18.4312C28.7861 18.4575 29.0938 18.4971 29.4014 18.5498C29.7178 18.6025 29.999 18.6553 30.2451 18.708C30.7021 18.7959 30.9307 19.0288 30.9307 19.4067C30.9307 19.6001 30.856 19.7627 30.7065 19.8945C30.5571 20.0176 30.3989 20.0791 30.2319 20.0791H30.1001C28.6323 19.8066 27.3184 19.6704 26.1582 19.6704C25.0156 19.6704 23.7104 19.8066 22.2427 20.0791H22.1108C21.9087 20.0791 21.7461 20.0132 21.623 19.8813C21.5 19.7407 21.4385 19.5869 21.4385 19.4199C21.4385 19.042 21.6187 18.8047 21.979 18.708C22.2866 18.6553 22.5942 18.6025 22.9019 18.5498C23.2095 18.4971 23.5127 18.4575 23.8115 18.4312V8.60938C22.6514 8.55664 21.9746 8.49072 21.7812 8.41162C21.6055 8.39404 21.4604 8.32373 21.3462 8.20068C21.2407 8.06885 21.188 7.90625 21.188 7.71289C21.188 7.51074 21.2627 7.34814 21.4121 7.2251C21.5703 7.10205 21.7285 7.04053 21.8867 7.04053H21.979C22.0405 7.10205 22.5063 7.15479 23.3765 7.19873C24.2554 7.23389 24.9014 7.25146 25.3145 7.25146C26.29 7.25146 26.9316 7.21631 27.2393 7.146C27.5469 7.07568 27.7666 7.04053 27.8984 7.04053C28.0391 7.04053 28.1753 7.11523 28.3071 7.26465C28.439 7.40527 28.5049 7.56348 28.5049 7.73926V8.68848ZM42.9673 8.50391C42.519 8.57422 41.917 8.60938 41.1611 8.60938H41.0557V18.5366C41.2227 18.519 41.3853 18.5103 41.5435 18.5103C41.8599 18.5103 42.1367 18.5103 42.374 18.5103C42.6113 18.5103 42.8091 18.519 42.9673 18.5366V8.50391ZM42.8091 2.99316C42.8091 2.7207 42.7124 2.49219 42.519 2.30762C42.3345 2.11426 42.106 2.01758 41.8335 2.01758C41.561 2.01758 41.3325 2.11426 41.1479 2.30762C40.9634 2.49219 40.8711 2.7207 40.8711 2.99316C40.8711 3.26563 40.9634 3.49414 41.1479 3.67871C41.3325 3.86328 41.561 3.95557 41.8335 3.95557C42.106 3.95557 42.3345 3.86328 42.519 3.67871C42.7124 3.49414 42.8091 3.26563 42.8091 2.99316ZM46.105 20.3296C44.6548 20.0396 43.3013 19.8945 42.0444 19.8945C40.7876 19.8945 39.4341 20.0396 37.9839 20.3296C37.7817 20.3296 37.6147 20.2549 37.4829 20.1055C37.3599 19.9561 37.2983 19.7979 37.2983 19.6309C37.2983 19.4639 37.3467 19.3145 37.4434 19.1826C37.5488 19.0508 37.7158 18.9629 37.9443 18.9189C38.1816 18.8662 38.4541 18.8223 38.7617 18.7871C39.0781 18.7432 39.3857 18.6992 39.6846 18.6553V8.55664L37.6543 8.38525C37.4785 8.35889 37.3335 8.27979 37.2192 8.14795C37.1138 8.01611 37.061 7.85352 37.061 7.66016C37.061 7.45801 37.1401 7.2998 37.2983 7.18555C37.4565 7.07129 37.6104 7.01416 37.7598 7.01416H37.8389C37.8477 7.01416 37.9487 7.02734 38.1421 7.05371C38.3354 7.07129 38.5859 7.09326 38.8936 7.11963C39.7285 7.18994 40.4932 7.2251 41.1875 7.2251C42.1543 7.2251 42.9365 7.15479 43.5342 7.01416H43.6792C43.8813 7.01416 44.0483 7.08447 44.1802 7.2251C44.312 7.35693 44.3779 7.51074 44.3779 7.68652L44.3516 18.6553C44.6592 18.6992 44.9668 18.7432 45.2744 18.7871C45.5908 18.8223 45.8721 18.8662 46.1182 18.9189C46.5752 19.0068 46.8037 19.2397 46.8037 19.6177C46.8037 19.8198 46.729 19.9868 46.5796 20.1187C46.4302 20.2593 46.272 20.3296 46.105 20.3296ZM44.1934 2.99316C44.1934 3.65234 43.9648 4.20605 43.5078 4.6543C43.0332 5.11133 42.4751 5.33984 41.8335 5.33984C41.1831 5.33984 40.6294 5.11133 40.1724 4.6543C39.7153 4.19727 39.4868 3.64355 39.4868 2.99316C39.4868 2.34277 39.7153 1.78906 40.1724 1.33203C40.6294 0.875 41.1831 0.646484 41.8335 0.646484C42.4751 0.646484 43.0332 0.875 43.5078 1.33203C43.9648 1.78027 44.1934 2.33398 44.1934 2.99316ZM57.9175 13.8037C58.0142 13.3467 58.0625 12.9028 58.0625 12.4722V11.167C58.0625 10.7188 58.0537 10.2969 58.0361 9.90137C57.667 9.02246 57.0298 8.38086 56.1245 7.97656C55.6851 7.77441 55.0742 7.66895 54.292 7.66016C53.5186 7.64258 52.8198 7.80518 52.1958 8.14795C51.5718 8.48193 51.0576 8.93896 50.6533 9.51904C49.8799 10.6265 49.4932 12.1206 49.4932 14.0015C49.5107 15.3813 49.8535 16.5283 50.5215 17.4424C51.2686 18.4619 52.2485 18.9717 53.4614 18.9717C54.3315 18.9717 55.1445 18.5762 55.9004 17.7852C56.9023 16.748 57.5747 15.4209 57.9175 13.8037ZM59.3545 8.04248L59.46 13.4873C59.46 14.4453 59.46 15.4209 59.46 16.4141C59.4688 17.4072 59.438 18.3872 59.3677 19.354C59.2095 21.5513 58.8008 23.3223 58.1416 24.667C59.917 23.5947 60.897 21.6523 61.0815 18.8398C61.2222 16.502 61.2925 13.8477 61.2925 10.877V8.06885H61.0815L59.3545 8.04248ZM58.6558 6.60547L61.1079 6.68457C62.2241 6.68457 62.9097 6.6582 63.1646 6.60547C63.4282 6.55273 63.5732 6.52637 63.5996 6.52637H63.6523C63.8369 6.52637 63.9995 6.60107 64.1401 6.75049C64.2808 6.89111 64.3511 7.04932 64.3511 7.2251C64.3511 7.39209 64.2939 7.5415 64.1797 7.67334C64.0742 7.79639 63.9424 7.87109 63.7842 7.89746C63.5029 7.9502 63.1338 7.99854 62.6768 8.04248L62.7031 10.877C62.7031 13.9004 62.6196 16.5811 62.4526 18.9189C62.3032 21.1602 61.5693 23.041 60.251 24.5615C58.8447 26.1787 57.0957 26.9873 55.0039 26.9873C53.5273 26.9873 52.2881 26.5259 51.2861 25.603C50.293 24.689 49.7964 23.542 49.7964 22.1621V22.1357C49.7964 21.9424 49.8623 21.7754 49.9941 21.6348C50.126 21.5029 50.2886 21.437 50.4819 21.437C50.6841 21.437 50.8467 21.5029 50.9697 21.6348C51.1016 21.7754 51.1675 22.0303 51.1675 22.3994C51.1675 22.7686 51.2729 23.1641 51.4839 23.5859C51.6948 24.0166 51.9805 24.3857 52.3408 24.6934C53.0615 25.3086 53.9404 25.6162 54.9775 25.6162C56.375 25.6162 57.2803 24.1221 57.6934 21.1338C57.8428 20.0967 57.9482 18.8618 58.0098 17.4292C57.3506 18.7739 56.3223 19.6748 54.9248 20.1318C54.4766 20.2812 53.9141 20.356 53.2373 20.356C52.5693 20.356 51.9058 20.1846 51.2466 19.8418C50.5874 19.499 50.0293 19.0376 49.5723 18.4575C48.623 17.271 48.1396 15.7944 48.1221 14.0278C48.1221 11.7778 48.6494 9.9541 49.7041 8.55664C50.8643 7.02734 52.4683 6.2627 54.5161 6.2627C55.8784 6.30664 57.021 6.71094 57.9438 7.47559L57.9175 7.33057V7.3042C57.9175 7.11963 57.9922 6.95703 58.1416 6.81641C58.291 6.67578 58.4536 6.60547 58.6294 6.60547H58.6558ZM71.2856 8.50391C70.8374 8.57422 70.2354 8.60938 69.4795 8.60938H69.374V18.5366C69.541 18.519 69.7036 18.5103 69.8618 18.5103C70.1782 18.5103 70.4551 18.5103 70.6924 18.5103C70.9297 18.5103 71.1274 18.519 71.2856 18.5366V8.50391ZM71.1274 2.99316C71.1274 2.7207 71.0308 2.49219 70.8374 2.30762C70.6528 2.11426 70.4243 2.01758 70.1519 2.01758C69.8794 2.01758 69.6509 2.11426 69.4663 2.30762C69.2817 2.49219 69.1895 2.7207 69.1895 2.99316C69.1895 3.26563 69.2817 3.49414 69.4663 3.67871C69.6509 3.86328 69.8794 3.95557 70.1519 3.95557C70.4243 3.95557 70.6528 3.86328 70.8374 3.67871C71.0308 3.49414 71.1274 3.26563 71.1274 2.99316ZM74.4233 20.3296C72.9731 20.0396 71.6196 19.8945 70.3628 19.8945C69.106 19.8945 67.7524 20.0396 66.3022 20.3296C66.1001 20.3296 65.9331 20.2549 65.8013 20.1055C65.6782 19.9561 65.6167 19.7979 65.6167 19.6309C65.6167 19.4639 65.665 19.3145 65.7617 19.1826C65.8672 19.0508 66.0342 18.9629 66.2627 18.9189C66.5 18.8662 66.7725 18.8223 67.0801 18.7871C67.3965 18.7432 67.7041 18.6992 68.0029 18.6553V8.55664L65.9727 8.38525C65.7969 8.35889 65.6519 8.27979 65.5376 8.14795C65.4321 8.01611 65.3794 7.85352 65.3794 7.66016C65.3794 7.45801 65.4585 7.2998 65.6167 7.18555C65.7749 7.07129 65.9287 7.01416 66.0781 7.01416H66.1572C66.166 7.01416 66.2671 7.02734 66.4604 7.05371C66.6538 7.07129 66.9043 7.09326 67.2119 7.11963C68.0469 7.18994 68.8115 7.2251 69.5059 7.2251C70.4727 7.2251 71.2549 7.15479 71.8525 7.01416H71.9976C72.1997 7.01416 72.3667 7.08447 72.4985 7.2251C72.6304 7.35693 72.6963 7.51074 72.6963 7.68652L72.6699 18.6553C72.9775 18.6992 73.2852 18.7432 73.5928 18.7871C73.9092 18.8223 74.1904 18.8662 74.4365 18.9189C74.8936 19.0068 75.1221 19.2397 75.1221 19.6177C75.1221 19.8198 75.0474 19.9868 74.8979 20.1187C74.7485 20.2593 74.5903 20.3296 74.4233 20.3296ZM72.5117 2.99316C72.5117 3.65234 72.2832 4.20605 71.8262 4.6543C71.3516 5.11133 70.7935 5.33984 70.1519 5.33984C69.5015 5.33984 68.9478 5.11133 68.4907 4.6543C68.0337 4.19727 67.8052 3.64355 67.8052 2.99316C67.8052 2.34277 68.0337 1.78906 68.4907 1.33203C68.9478 0.875 69.5015 0.646484 70.1519 0.646484C70.7935 0.646484 71.3516 0.875 71.8262 1.33203C72.2832 1.78027 72.5117 2.33398 72.5117 2.99316ZM81.5952 8.63574C81.147 8.70605 80.5449 8.74121 79.7891 8.74121H79.6836V18.6553C80.123 18.6553 80.501 18.6553 80.8174 18.6553C81.1426 18.6553 81.4019 18.6641 81.5952 18.6816V8.63574ZM79.8154 7.33057C80.7646 7.33057 81.5908 7.26025 82.2939 7.11963C82.4961 7.11963 82.6631 7.19434 82.7949 7.34375C82.9355 7.48438 83.0059 7.64258 83.0059 7.81836V9.17627C84.0342 7.66455 85.4448 6.90869 87.2378 6.90869C89.0396 6.90869 90.2129 8.01611 90.7578 10.231C90.9512 10.9868 91.0479 11.7207 91.0479 12.4326C91.0479 13.1445 91.0259 13.7642 90.9819 14.2915C90.938 14.8101 90.8809 15.3286 90.8105 15.8472C90.6875 16.8755 90.5337 17.7632 90.3491 18.5103C90.6831 18.5278 91.0259 18.5454 91.3774 18.563C91.7378 18.5806 92.0586 18.6025 92.3398 18.6289C92.8496 18.6904 93.1045 18.9497 93.1045 19.4067C93.0869 19.5825 93.0078 19.7319 92.8672 19.855C92.7266 19.9692 92.5684 20.0264 92.3926 20.0264H92.3398C91.4961 19.9385 90.5732 19.8945 89.5713 19.8945C88.5781 19.8945 87.6465 19.9912 86.7764 20.1846C86.5918 20.1846 86.4292 20.1143 86.2886 19.9736C86.1479 19.8242 86.0776 19.666 86.0776 19.499C86.0776 19.332 86.1304 19.1826 86.2358 19.0508C86.3501 18.9189 86.5391 18.8311 86.8027 18.7871C87.1982 18.708 87.9014 18.6245 88.9121 18.5366C89.2021 17.5347 89.3999 16.4448 89.5054 15.2671C89.6108 14.0806 89.6636 13.272 89.6636 12.8413C89.6636 9.80029 88.855 8.27979 87.2378 8.27979C86.0776 8.27979 85.0713 8.81152 84.2188 9.875C83.4102 10.8682 83.0059 11.9053 83.0059 12.9863V13.0127L82.9795 18.8135C83.1377 18.8311 83.2915 18.8486 83.4409 18.8662C83.5903 18.875 83.7441 18.8926 83.9023 18.9189C84.0693 18.9365 84.21 19.0112 84.3242 19.1431C84.4473 19.2661 84.5088 19.4199 84.5088 19.6045C84.5088 19.7891 84.4341 19.9517 84.2847 20.0923C84.144 20.2329 84.021 20.3032 83.9155 20.3032C83.8101 20.3032 83.7485 20.29 83.731 20.2637C82.1489 20.1055 81.0591 20.0264 80.4614 20.0264C79.2925 20.0264 78.3696 20.0879 77.6929 20.2109C77.0161 20.3428 76.6118 20.4087 76.48 20.4087C76.3569 20.4087 76.2339 20.334 76.1108 20.1846C75.9878 20.0352 75.9263 19.877 75.9263 19.71C75.9263 19.543 75.9746 19.3936 76.0713 19.2617C76.168 19.1299 76.3394 19.042 76.5854 18.998C77.0776 18.9014 77.6489 18.8223 78.2993 18.7607V8.68848C77.1216 8.63574 76.4492 8.57422 76.2822 8.50391C76.1064 8.48633 75.9614 8.41162 75.8472 8.27979C75.7417 8.14795 75.689 7.98535 75.689 7.79199C75.689 7.59863 75.7637 7.44043 75.9131 7.31738C76.0625 7.18555 76.1855 7.11963 76.2822 7.11963C76.3877 7.11963 76.4448 7.12402 76.4536 7.13281C76.4712 7.1416 76.5767 7.15479 76.77 7.17236C76.9634 7.18994 77.2139 7.21191 77.5215 7.23828C78.251 7.2998 79.0156 7.33057 79.8154 7.33057ZM103.203 15.3857C103.168 15.0869 103.15 14.7705 103.15 14.4365H102.663C101.221 14.4365 99.8062 14.7002 98.4175 15.2275C96.6421 15.8955 95.7544 16.8491 95.7544 18.0884C95.7544 18.5454 95.9609 18.9014 96.374 19.1562C96.7168 19.3584 97.165 19.4595 97.7188 19.4595C98.2725 19.4595 98.8262 19.3408 99.3799 19.1035C99.9424 18.8574 100.461 18.541 100.936 18.1543C101.779 17.4512 102.535 16.5283 103.203 15.3857ZM106.38 18.6553C106.407 18.3916 106.42 17.8643 106.42 17.0732C106.42 16.2822 106.402 15.5308 106.367 14.8188C106.341 14.0981 106.275 13.4038 106.169 12.7358C106.064 12.0679 105.906 11.4395 105.695 10.8506C105.484 10.2617 105.198 9.75195 104.838 9.32129C104.038 8.37207 102.926 7.89746 101.502 7.89746C101.476 7.89746 101.454 7.90625 101.437 7.92383C101.419 7.93262 101.397 7.93701 101.371 7.93701H101.423C102.838 8.70166 103.757 9.97168 104.179 11.7471C104.416 12.7227 104.543 13.6499 104.561 14.5288C104.587 15.3989 104.601 16.0845 104.601 16.5854C104.601 17.3765 104.565 18.1719 104.495 18.9717C105.128 18.8398 105.756 18.7344 106.38 18.6553ZM108.595 18.5103L109.544 18.5366C109.738 18.5542 109.892 18.6289 110.006 18.7607C110.129 18.8926 110.19 19.0552 110.19 19.2485C110.19 19.4331 110.125 19.5957 109.993 19.7363C109.87 19.877 109.711 19.9473 109.518 19.9473H109.465C109.316 19.9297 109.162 19.9209 109.004 19.9209H108.542C106.934 19.9209 105.378 20.1362 103.875 20.5669L103.691 20.5933C103.489 20.5933 103.322 20.5142 103.19 20.356C103.067 20.2065 103.005 20.0527 103.005 19.8945V19.7891C103.005 19.7715 103.027 19.5957 103.071 19.2617C103.115 18.9189 103.159 18.4443 103.203 17.8379C101.419 19.833 99.5645 20.8306 97.6396 20.8306C96.752 20.8306 95.9961 20.5845 95.3721 20.0923C94.7041 19.5737 94.3701 18.9453 94.3701 18.207C94.3701 17.4688 94.5107 16.8491 94.792 16.3481C95.082 15.8472 95.46 15.4121 95.9258 15.043C96.3916 14.665 96.9189 14.353 97.5078 14.1069C98.1055 13.8521 98.7119 13.6455 99.3271 13.4873C100.47 13.2061 101.582 13.0654 102.663 13.0654H102.979C102.979 11.9492 102.623 10.9736 101.911 10.1387C101.155 9.25977 100.237 8.82031 99.1558 8.82031C98.3472 8.82031 97.5913 9.2334 96.8882 10.0596C96.2026 10.8594 95.8599 11.6987 95.8599 12.5776C95.8599 12.7534 95.7852 12.9028 95.6357 13.0259C95.4951 13.1401 95.3325 13.1973 95.1479 13.1973C94.9634 13.1973 94.8008 13.127 94.6602 12.9863C94.5195 12.8369 94.4492 12.6128 94.4492 12.314C94.4492 12.0151 94.5239 11.6372 94.6733 11.1802C94.8228 10.7144 95.0381 10.2617 95.3193 9.82227C95.6094 9.37402 95.9565 8.95215 96.3608 8.55664C96.7739 8.16113 97.2441 7.80957 97.7715 7.50195C98.8965 6.85156 100.039 6.52637 101.199 6.52637C102.368 6.52637 103.3 6.68018 103.994 6.98779C104.697 7.29541 105.282 7.71289 105.748 8.24023C106.222 8.76758 106.596 9.37842 106.868 10.0728C107.141 10.7671 107.347 11.501 107.488 12.2744C107.708 13.4873 107.817 15.0386 107.817 16.9282L107.791 18.5366L108.595 18.5103ZM115.596 2.479C115.024 2.53174 114.422 2.55811 113.79 2.55811H113.684V18.4839H115.596V2.479ZM112.313 2.53174L110.691 2.34717C110.516 2.3208 110.371 2.2417 110.256 2.10986C110.151 1.97803 110.098 1.81543 110.098 1.62207C110.098 1.41992 110.177 1.26172 110.335 1.14746C110.494 1.02441 110.647 0.962891 110.797 0.962891H110.876C110.885 0.962891 110.964 0.976074 111.113 1.00244C111.263 1.02002 111.465 1.04199 111.72 1.06836C112.353 1.14746 113.051 1.18701 113.816 1.18701C114.756 1.18701 115.389 1.15186 115.714 1.08154C116.04 1.00244 116.268 0.962891 116.4 0.962891C116.541 0.962891 116.677 1.0376 116.809 1.18701C116.94 1.32764 117.006 1.48584 117.006 1.66162L116.98 18.6289C117.226 18.6553 117.419 18.6816 117.56 18.708C117.709 18.7256 117.833 18.7432 117.929 18.7607C118.035 18.7695 118.167 18.7915 118.325 18.8267C118.492 18.8618 118.628 18.9409 118.733 19.064C118.839 19.187 118.892 19.3408 118.892 19.5254C118.892 19.7012 118.817 19.855 118.667 19.9868C118.527 20.1187 118.369 20.1846 118.193 20.1846H118.061C115.626 19.7539 113.223 19.7627 110.85 20.2109H110.718C110.498 20.2109 110.331 20.1406 110.217 20C110.103 19.8682 110.045 19.7144 110.045 19.5386C110.045 19.1694 110.226 18.9365 110.586 18.8398C111.113 18.752 111.689 18.6816 112.313 18.6289V2.53174Z" fill="black"/>
</svg>
